<svg aria-hidden="true" style="position: absolute; width: 0; height: 0; overflow: hidden;" version="1.1" xmlns="http://www.w3.org/2000/svg" xmlns:xlink="http://www.w3.org/1999/xlink">
<defs>
<symbol id="icon-first" viewBox="0 0 32 32">
<path fill="#8e8e8e" style="fill: var(--color1, #8e8e8e)" d="M32 16c0 8.837-7.163 16-16 16s-16-7.163-16-16c0-8.837 7.163-16 16-16s16 7.163 16 16z"></path>
<path fill="#fff" style="fill: var(--color2, #fff)" d="M23.596 12.288v6.233c1.169-0.399 2.003-1.655 2.003-3.116s-0.835-2.717-2.003-3.116z"></path>
<path fill="#fff" style="fill: var(--color2, #fff)" d="M21.678 7.468c-0.563 0-0.926 0.363-0.926 0.926-1.392 1.96-4.074 3.363-7.209 3.951v6.119c3.135 0.589 5.818 1.991 7.209 3.951 0 0.563 0.364 0.926 0.926 0.926s0.926-0.363 0.926-0.926v-14.022c0-0.563-0.363-0.926-0.926-0.926z"></path>
<path fill="#fff" style="fill: var(--color2, #fff)" d="M12.485 18.414v-6.019h-3.175c-1.768 0-2.91 1.142-2.91 2.91v0.198c0 1.768 1.142 2.91 2.91 2.91l3.175-0z"></path>
<path fill="#fff" style="fill: var(--color2, #fff)" d="M12.091 19.34h-3.002l1.036 4.083c0.217 0.857 0.911 1.27 1.768 1.053s1.27-0.911 1.053-1.768l-0.854-3.367z"></path>
</symbol>
<symbol id="icon-second" viewBox="0 0 59 32">
<path fill="#8e8e8e" style="fill: var(--color1, #8e8e8e)" d="M32 16c0 8.837-7.163 16-16 16s-16-7.163-16-16c0-8.837 7.163-16 16-16s16 7.163 16 16z"></path>
<path fill="#fff" style="fill: var(--color2, #fff)" d="M6.506 22.242c0.838-0.555 5.285-2.34 5.75-2.3 0.047-0.548 0.1-1.096 0.146-1.651 0.007-0.060-0.027-0.14-0.066-0.181-0.558-0.535-0.638-1.277-0.858-1.959-0.040-0.114-0.060-0.234-0.1-0.381-0.372 0.107-0.525-0.134-0.612-0.435-0.193-0.715-0.399-1.431-0.545-2.159-0.093-0.455 0.1-0.595 0.698-0.548-0.013-0.147-0.040-0.287-0.033-0.428 0.053-1.11 0.1-2.22 0.193-3.329 0.027-0.321 0.16-0.655 0.326-0.936 0.871-1.437 2.107-2.36 3.802-2.56 2.121-0.247 3.736 0.622 4.946 2.34 0.459 0.648 0.552 1.404 0.578 2.159 0.027 0.909 0.007 1.818 0.007 2.754 0.146-0.013 0.239-0.040 0.332-0.027 0.233 0.020 0.419 0.134 0.392 0.394-0.086 0.902-0.292 1.778-0.685 2.594-0.053 0.114-0.266 0.154-0.499 0.281-0.113 0.368-0.246 0.862-0.412 1.337-0.087 0.247-0.206 0.501-0.372 0.695-0.186 0.214-0.246 0.428-0.213 0.695 0.053 0.441 0.093 0.883 0.14 1.277 0.233 0.053 0.439 0.073 0.618 0.147 1.582 0.655 3.164 1.317 4.746 1.979 0.133 0.053 0.253 0.127 0.386 0.194-4.467 5.789-13.801 6.117-18.667 0.047z"></path>
<path fill="none" opacity="0.8" stroke="#8e8e8e" style="stroke: var(--color1, #8e8e8e)" stroke-linejoin="miter" stroke-linecap="round" stroke-miterlimit="4" stroke-width="2.6667" d="M42.667 14.772l5.333 5.228 5.333-5.333"></path>
</symbol>
</defs>
</svg>
