<svg aria-hidden="true" style="position: absolute; width: 0; height: 0; overflow: hidden;" version="1.1" xmlns="http://www.w3.org/2000/svg" xmlns:xlink="http://www.w3.org/1999/xlink">
<defs>
<symbol id="extensions" viewBox="0 0 32 32">
<path d="M14 0h-14v32h14v-6h-8v-20h8v-6zM32 0h-14v6h8v20h-8v6h14v-32z"></path>
</symbol>
<symbol id="facebook" viewBox="0 0 32 32">
<path fill="#3b5997" style="fill: var(--color1, #3b5997)" d="M16 32c8.837 0 16-7.163 16-16s-7.163-16-16-16c-8.837 0-16 7.163-16 16s7.163 16 16 16z"></path>
<path fill="#fff" style="fill: var(--color2, #fff)" d="M13.262 10.596v2.137h-1.671v2.623h1.671v7.765h3.444v-7.765h2.305c0 0 0.215-1.26 0.317-2.632h-2.613v-1.783c0.073-0.358 0.381-0.62 0.747-0.635h1.876v-2.716h-2.548c-3.612-0.009-3.528 2.613-3.528 3.005z"></path>
</symbol>
<symbol id="mastercard" viewBox="0 0 32 32">
<path fill="#ff5f00" style="fill: var(--color3, #ff5f00)" d="M12.63 9.638h6.394v11.708h-6.394v-11.708z"></path>
<path fill="#eb001b" style="fill: var(--color4, #eb001b)" d="M13.037 15.492c0-2.372 1.090-4.499 2.79-5.854-1.238-0.998-2.809-1.6-4.509-1.6-4.047 0-7.318 3.332-7.318 7.454 0 4.104 3.271 7.454 7.318 7.454 1.7 0 3.271-0.602 4.509-1.6-1.7-1.374-2.79-3.482-2.79-5.854z"></path>
<path fill="#f79e1b" style="fill: var(--color5, #f79e1b)" d="M27.654 15.492c0 4.104-3.271 7.454-7.318 7.454-1.7 0-3.271-0.602-4.509-1.6 1.7-1.355 2.79-3.482 2.79-5.854s-1.090-4.499-2.79-5.854c1.238-0.998 2.809-1.6 4.509-1.6 4.047 0 7.318 3.332 7.318 7.454zM26.952 20.104v-0.245h0.092v-0.056h-0.24v0.056h0.092v0.245h0.055zM27.432 19.821v0.282h-0.074v-0.226l-0.074 0.188h-0.055l-0.074-0.188v0.226h-0.055v-0.282h0.074l0.092 0.207 0.092-0.207h0.074z"></path>
</symbol>
<symbol id="visa" viewBox="0 0 32 32">
<path fill="#005bac" style="fill: var(--color6, #005bac)" d="M22.112 12.62c-1.089-0.608-3.567-0.752-3.567 0.368 0 0.445 0.561 0.751 1.237 1.12 1.025 0.56 2.315 1.264 2.315 2.817 0 2.481-2.62 3.393-4.357 3.393s-2.873-0.56-2.873-0.56l0.379-2.225c1.042 0.848 4.199 1.088 4.199-0.256 0-0.565-0.621-0.898-1.342-1.284-0.994-0.533-2.178-1.168-2.178-2.653 0-2.721 2.999-3.281 4.262-3.281 1.168 0 2.289 0.432 2.289 0.432l-0.363 2.129zM8.612 10.237l-2.426 6.817-0.287-1.468 0 0.001-0.063-0.329c-0.294-0.642-0.974-1.861-2.258-2.902-0.38-0.308-0.762-0.57-1.132-0.794l2.205 8.588h2.652l4.049-9.912h-2.739zM12.344 10.237l-1.591 9.912h2.545l1.591-9.912h-2.545zM28.929 10.237h-2.046c-0.945 0-1.175 0.739-1.175 0.739l-3.795 9.173h2.652l0.531-1.472h3.235l0.299 1.472h2.337l-2.038-9.912zM27.167 12.933l-1.337 3.709h2.090l-0.752-3.709z"></path>
<path fill="#f6ac1d" style="fill: var(--color7, #f6ac1d)" d="M5.364 11.402c0 0-0.105-0.907-1.23-0.907h-4.085l-0.048 0.171c0 0 1.964 0.412 3.847 1.954 1.8 1.474 2.388 3.311 2.388 3.311l-0.872-4.528z"></path>
</symbol>
<symbol id="youtube" viewBox="0 0 32 32">
<path fill="#cd201f" style="fill: var(--color8, #cd201f)" d="M16 32c8.837 0 16-7.163 16-16s-7.163-16-16-16c-8.837 0-16 7.163-16 16s7.163 16 16 16z"></path>
<path fill="#fff" style="fill: var(--color2, #fff)" d="M12 9.333v13.007l11.389-6.354-11.389-6.653z"></path>
</symbol>
<symbol id="linkedin" viewBox="0 0 32 32">
<path fill="#0483bf" style="fill: var(--color9, #0483bf)" d="M16 32c8.837 0 16-7.163 16-16s-7.163-16-16-16c-8.837 0-16 7.163-16 16s7.163 16 16 16z"></path>
<path fill="#fff" style="fill: var(--color2, #fff)" d="M9.521 22.629h3.243v-9.743h-3.243v9.743zM23.41 13.778c-0.682-0.745-1.583-1.116-2.703-1.116-0.413 0-0.788 0.050-1.126 0.151-0.309 0.088-0.6 0.233-0.855 0.428-0.233 0.185-0.419 0.354-0.555 0.511-0.13 0.149-0.258 0.324-0.383 0.521v-1.387h-3.236l0.010 0.473c0.006 0.314 0.010 1.284 0.010 2.909 0 1.625-0.007 3.745-0.020 6.359h3.234v-5.435c0-0.334 0.036-0.599 0.107-0.795 0.138-0.335 0.346-0.615 0.625-0.841 0.278-0.227 0.624-0.34 1.036-0.34 0.564 0 0.979 0.195 1.243 0.585 0.266 0.39 0.399 0.929 0.399 1.617v5.21h3.234v-5.583c0-1.435-0.341-2.525-1.021-3.268zM11.163 8.199c-0.544 0-0.985 0.158-1.324 0.476-0.333 0.31-0.517 0.749-0.505 1.204 0 0.479 0.164 0.879 0.492 1.2 0.326 0.32 0.759 0.48 1.297 0.48h0.018c0.551 0 0.994-0.16 1.333-0.48 0.337-0.321 0.502-0.721 0.496-1.2 0.006-0.453-0.175-0.888-0.501-1.202-0.327-0.32-0.763-0.478-1.307-0.478z"></path>
</symbol>
<symbol id="Shape" viewBox="0 0 32 32">
<path d="M0.959 0c-0.8 0-1.2 0.8-0.8 1.6l6.6 9.8 7.8-11.4h-13.6zM22.957 0l-11.4 16.4v8.485l6.8 6.515v-12.6c0-0.2 0-0.4 0.2-0.6l11.6-16.6c0.6-0.6 0.2-1.6-0.6-1.6h-6.6z"></path>
</symbol>
<symbol id="telegram" viewBox="0 0 32 32">
<path fill="#31ace0" style="fill: var(--color10, #31ace0)" d="M16 32c8.837 0 16-7.163 16-16s-7.163-16-16-16c-8.837 0-16 7.163-16 16s7.163 16 16 16z"></path>
<path fill="#fff" style="fill: var(--color2, #fff)" d="M10.636 17.518l-3.687-1.398c-0.374-0.143-0.378-0.68-0.004-0.826l15.13-5.93c0.321-0.126 0.652 0.159 0.582 0.502l-2.715 13.27c-0.064 0.313-0.426 0.455-0.681 0.267l-3.707-2.734c-0.225-0.166-0.532-0.157-0.747 0.021l-2.055 1.702c-0.239 0.198-0.598 0.088-0.689-0.211l-1.427-4.663zM19.038 12.265l-7.205 4.509c-0.276 0.173-0.406 0.512-0.317 0.829l0.779 2.781c0.055 0.197 0.337 0.177 0.364-0.027l0.203-1.525c0.038-0.287 0.173-0.552 0.382-0.749l5.946-5.616c0.111-0.105-0.022-0.283-0.151-0.202z"></path>
</symbol>
</defs>
</svg>
