<svg aria-hidden="true" style="position: absolute; width: 0; height: 0; overflow: hidden;" version="1.1" xmlns="http://www.w3.org/2000/svg" xmlns:xlink="http://www.w3.org/1999/xlink">
<defs>
<symbol id="icon-megaphone" viewBox="0 0 32 32">
<path fill="#a8b4ca" style="fill: var(--color1, #a8b4ca)" d="M26.035 12.006c1.558 0.187 2.771 1.516 2.771 3.124v0.23c0 1.608-1.212 2.937-2.771 3.124v8.069c0 0.494-0.32 0.912-0.798 1.041-0.096 0.026-0.193 0.038-0.288 0.038-0.376 0-0.727-0.197-0.925-0.538-1.705-2.933-4.389-4.937-7.98-5.958-2.715-0.772-4.955-0.66-4.978-0.659-0.033 0.002-0.066 0-0.098-0.003h-0.713l1.485 6.105c0.153 0.629 0.011 1.282-0.389 1.791s-1.001 0.801-1.648 0.801h-1.202c-0.97 0-1.808-0.658-2.037-1.601l-1.731-7.12c-2.652-0.251-4.733-2.49-4.733-5.206 0-2.884 2.346-5.23 5.23-5.23h5.741c0.032-0.003 0.065-0.005 0.098-0.003 0.022 0.001 2.262 0.113 4.977-0.659 3.59-1.021 6.275-3.025 7.98-5.958 0.248-0.427 0.736-0.628 1.212-0.499s0.798 0.547 0.798 1.041v8.069zM10.526 26.875l-0.197-0.812h-0.5c-0.345 0-0.625-0.28-0.625-0.625s0.28-0.625 0.625-0.625h0.196l-0.31-1.273h-0.603c-0.345 0-0.625-0.28-0.625-0.625s0.28-0.625 0.625-0.625h0.299l-0.441-1.815h-2.944l1.654 6.8c0.093 0.381 0.431 0.647 0.823 0.647h1.202c0.261 0 0.504-0.118 0.666-0.323s0.219-0.469 0.157-0.723zM24.785 17.881v-13.334c-1.873 2.913-4.778 4.988-8.44 6.020-2.027 0.571-3.779 0.685-4.687 0.7v7.955c0.908 0.015 2.66 0.129 4.687 0.7 3.662 1.031 6.567 3.107 8.44 6.020v-8.061zM26.035 17.219c0.866-0.175 1.521-0.942 1.521-1.859v-0.23c0-0.917-0.654-1.684-1.521-1.859v3.948zM10.408 19.224v-7.96h-5.178c-2.195 0-3.98 1.786-3.98 3.98 0 2.189 1.776 3.97 3.962 3.98 0.006-0 0.012-0.001 0.018-0.001h4.231c0.009 0 0.019 0.001 0.028 0.001 0.002 0 0.004 0 0.007 0h0.913z"></path>
<path fill="#a8b4ca" style="fill: var(--color1, #a8b4ca)" d="M28.993 11.584c0.15 0 0.301-0.054 0.421-0.163l1.803-1.642c0.255-0.232 0.274-0.628 0.041-0.883s-0.628-0.274-0.883-0.041l-1.803 1.642c-0.255 0.232-0.274 0.628-0.041 0.883 0.123 0.135 0.292 0.204 0.462 0.204z"></path>
<path fill="#a8b4ca" style="fill: var(--color1, #a8b4ca)" d="M29.414 19.039c-0.255-0.232-0.651-0.214-0.883 0.041s-0.214 0.65 0.041 0.883l1.803 1.642c0.12 0.109 0.27 0.163 0.421 0.163 0.17 0 0.339-0.069 0.462-0.204 0.232-0.255 0.214-0.651-0.041-0.883l-1.803-1.642z"></path>
<path fill="#a8b4ca" style="fill: var(--color1, #a8b4ca)" d="M31.375 14.605h-1.384c-0.345 0-0.625 0.28-0.625 0.625s0.28 0.625 0.625 0.625h1.384c0.345 0 0.625-0.28 0.625-0.625s-0.28-0.625-0.625-0.625z"></path>
</symbol>
<symbol id="icon-Group-3" viewBox="0 0 174 32">
<path d="M7.986 1.929h-3.061v8.49h-1.249v-8.49h-3.054v-1.033h7.365v1.033z"></path>
<path d="M11.053 8.646l1.648-5.305h1.295l-2.845 8.169c-0.44 1.177-1.14 1.766-2.1 1.766l-0.229-0.020-0.451-0.085v-0.981l0.327 0.026c0.41 0 0.728-0.083 0.955-0.249 0.231-0.166 0.421-0.469 0.569-0.909l0.268-0.719-2.525-6.999h1.321l1.766 5.305z"></path>
<path d="M20.341 4.323h-2.374v6.096h-1.21v-6.096h-2.328v-0.981h5.913v0.981z"></path>
<path d="M27.948 3.747c0.89 0 1.6 0.299 2.132 0.896 0.536 0.593 0.805 1.376 0.805 2.348v0.111c0 0.667-0.129 1.265-0.386 1.792-0.257 0.523-0.628 0.931-1.112 1.223-0.48 0.288-1.033 0.432-1.661 0.432-0.951 0-1.716-0.316-2.296-0.948-0.58-0.637-0.87-1.489-0.87-2.557v-0.589c0-1.487 0.275-2.669 0.824-3.545 0.554-0.876 1.369-1.411 2.446-1.602 0.61-0.109 1.023-0.242 1.236-0.399s0.321-0.373 0.321-0.648h0.994c0 0.545-0.124 0.97-0.373 1.275-0.244 0.305-0.637 0.521-1.177 0.648l-0.903 0.203c-0.719 0.17-1.26 0.458-1.622 0.863-0.358 0.401-0.591 0.938-0.7 1.609 0.641-0.741 1.422-1.112 2.342-1.112zM27.712 4.741c-0.593 0-1.064 0.201-1.413 0.602-0.349 0.397-0.523 0.948-0.523 1.655v0.105c0 0.759 0.174 1.36 0.523 1.805 0.353 0.44 0.829 0.661 1.426 0.661 0.602 0 1.077-0.222 1.426-0.667s0.523-1.094 0.523-1.949c0-0.667-0.177-1.201-0.53-1.602-0.349-0.406-0.826-0.608-1.432-0.608z"></path>
<path d="M34.56 8.646l1.648-5.305h1.295l-2.845 8.169c-0.44 1.177-1.14 1.766-2.1 1.766l-0.229-0.020-0.451-0.085v-0.981l0.327 0.026c0.41 0 0.728-0.083 0.955-0.249 0.231-0.166 0.421-0.469 0.569-0.909l0.268-0.719-2.525-6.999h1.321l1.766 5.305z"></path>
<path d="M38.164 9.431l0.419-0.517c0.471-0.61 0.739-1.526 0.805-2.747l0.111-2.826h4.559v6.089h0.909v3.068h-1.21v-2.080h-4.938v2.080h-1.21l0.007-3.068h0.549zM39.597 9.431h3.251v-4.971h-2.178l-0.072 1.688c-0.074 1.408-0.408 2.503-1.001 3.283z"></path>
<path d="M48.623 8.646l1.648-5.305h1.295l-2.845 8.169c-0.44 1.177-1.14 1.766-2.1 1.766l-0.229-0.020-0.451-0.085v-0.981l0.327 0.026c0.41 0 0.728-0.083 0.955-0.249 0.231-0.166 0.421-0.469 0.569-0.909l0.268-0.719-2.525-6.999h1.321l1.766 5.305z"></path>
<path d="M57.911 4.323h-2.374v6.096h-1.21v-6.096h-2.328v-0.981h5.913v0.981z"></path>
<path d="M60.409 5.781h1.838c0.802 0.009 1.437 0.218 1.903 0.628s0.7 0.966 0.7 1.668c0 0.706-0.24 1.273-0.719 1.701s-1.125 0.641-1.936 0.641h-2.996v-7.077h1.21v2.44zM60.409 6.769v2.662h1.799c0.453 0 0.805-0.116 1.053-0.347 0.249-0.235 0.373-0.556 0.373-0.961 0-0.392-0.122-0.713-0.366-0.961-0.24-0.253-0.578-0.384-1.014-0.392h-1.844z"></path>
<path d="M75.472 10.419h-1.21v-6.076h-3.257v6.076h-1.217v-7.077h5.684v7.077z"></path>
<path d="M77.095 6.815c0-0.693 0.135-1.317 0.406-1.871 0.275-0.554 0.654-0.981 1.138-1.282 0.488-0.301 1.044-0.451 1.668-0.451 0.964 0 1.742 0.334 2.335 1.001 0.598 0.667 0.896 1.554 0.896 2.662v0.085c0 0.689-0.133 1.308-0.399 1.858-0.262 0.545-0.639 0.97-1.132 1.275-0.488 0.305-1.051 0.458-1.687 0.458-0.959 0-1.738-0.334-2.335-1.001-0.593-0.667-0.889-1.55-0.889-2.649v-0.085zM78.311 6.959c0 0.785 0.182 1.415 0.543 1.89 0.366 0.475 0.854 0.713 1.465 0.713 0.615 0 1.103-0.24 1.465-0.719 0.362-0.484 0.543-1.16 0.543-2.028 0-0.776-0.185-1.404-0.556-1.884-0.366-0.484-0.855-0.726-1.465-0.726-0.598 0-1.079 0.238-1.445 0.713s-0.55 1.156-0.55 2.041z"></path>
<path d="M87.259 7.403h-0.883v3.015h-1.216v-7.077h1.216v2.996h0.792l2.381-2.996h1.465l-2.8 3.401 3.035 3.676h-1.537l-2.453-3.015z"></path>
<path d="M96.658 10.419c-0.070-0.14-0.126-0.388-0.17-0.746-0.563 0.584-1.234 0.877-2.014 0.877-0.697 0-1.271-0.196-1.72-0.589-0.445-0.397-0.668-0.898-0.668-1.504 0-0.737 0.279-1.308 0.837-1.714 0.563-0.41 1.352-0.615 2.368-0.615h1.177v-0.556c0-0.423-0.126-0.759-0.38-1.007-0.253-0.253-0.626-0.379-1.118-0.379-0.432 0-0.793 0.109-1.086 0.327s-0.438 0.482-0.438 0.791h-1.216c0-0.353 0.124-0.693 0.373-1.020 0.252-0.331 0.592-0.593 1.020-0.785 0.432-0.192 0.904-0.288 1.419-0.288 0.816 0 1.454 0.205 1.916 0.615 0.462 0.406 0.702 0.966 0.72 1.681v3.257c0 0.65 0.083 1.166 0.249 1.55v0.105h-1.269zM94.65 9.496c0.379 0 0.739-0.098 1.079-0.294s0.586-0.451 0.739-0.765v-1.452h-0.949c-1.482 0-2.224 0.434-2.224 1.302 0 0.379 0.126 0.676 0.38 0.89s0.578 0.32 0.975 0.32z"></path>
<path d="M103.466 5.278c0-0.331-0.126-0.593-0.38-0.785-0.252-0.196-0.599-0.294-1.040-0.294-0.427 0-0.785 0.111-1.072 0.334-0.284 0.222-0.426 0.484-0.426 0.785h-1.203c0-0.615 0.257-1.118 0.772-1.511s1.158-0.589 1.93-0.589c0.828 0 1.474 0.179 1.936 0.536 0.462 0.353 0.693 0.859 0.693 1.517 0 0.318-0.096 0.61-0.288 0.876s-0.464 0.477-0.817 0.634c0.824 0.279 1.236 0.829 1.236 1.648 0 0.65-0.251 1.164-0.752 1.544s-1.171 0.569-2.008 0.569c-0.816 0-1.489-0.198-2.021-0.595-0.528-0.401-0.791-0.942-0.791-1.622h1.203c0 0.344 0.153 0.641 0.458 0.89 0.31 0.244 0.694 0.366 1.151 0.366 0.462 0 0.835-0.107 1.118-0.321s0.425-0.491 0.425-0.831c0-0.397-0.12-0.68-0.359-0.85-0.236-0.174-0.604-0.262-1.106-0.262h-1.21v-1.020h1.315c0.824-0.022 1.236-0.362 1.236-1.020z"></path>
<path d="M110.746 10.419c-0.069-0.14-0.126-0.388-0.17-0.746-0.563 0.584-1.234 0.877-2.014 0.877-0.698 0-1.271-0.196-1.721-0.589-0.444-0.397-0.667-0.898-0.667-1.504 0-0.737 0.279-1.308 0.837-1.714 0.563-0.41 1.351-0.615 2.368-0.615h1.177v-0.556c0-0.423-0.126-0.759-0.38-1.007-0.253-0.253-0.626-0.379-1.118-0.379-0.432 0-0.794 0.109-1.086 0.327s-0.438 0.482-0.438 0.791h-1.217c0-0.353 0.124-0.693 0.373-1.020 0.253-0.331 0.593-0.593 1.020-0.785 0.432-0.192 0.905-0.288 1.42-0.288 0.815 0 1.454 0.205 1.916 0.615 0.462 0.406 0.702 0.966 0.72 1.681v3.257c0 0.65 0.083 1.166 0.249 1.55v0.105h-1.27zM108.738 9.496c0.38 0 0.739-0.098 1.079-0.294s0.586-0.451 0.74-0.765v-1.452h-0.949c-1.482 0-2.224 0.434-2.224 1.302 0 0.379 0.126 0.676 0.38 0.89s0.578 0.32 0.974 0.32z"></path>
<path d="M119.446 10.419h-1.21v-3.022h-3.251v3.022h-1.217v-7.077h1.217v3.068h3.251v-3.068h1.21v7.077z"></path>
<path d="M122.71 10.419h-1.21v-7.077h1.21v7.077zM121.401 1.464c0-0.196 0.059-0.362 0.176-0.497 0.122-0.135 0.301-0.203 0.537-0.203s0.414 0.068 0.537 0.203c0.122 0.135 0.183 0.301 0.183 0.497s-0.061 0.36-0.183 0.491c-0.123 0.131-0.301 0.196-0.537 0.196s-0.415-0.065-0.537-0.196c-0.118-0.131-0.176-0.294-0.176-0.491z"></path>
<path d="M128.086 10.419v-7.077h2.76c0.942 0 1.664 0.166 2.165 0.497 0.506 0.327 0.759 0.809 0.759 1.445 0 0.327-0.098 0.624-0.295 0.89-0.196 0.262-0.486 0.462-0.87 0.602 0.428 0.1 0.77 0.296 1.027 0.589 0.262 0.292 0.393 0.641 0.393 1.047 0 0.65-0.24 1.147-0.72 1.491-0.476 0.344-1.149 0.517-2.021 0.517h-3.198zM129.296 7.312v2.132h2.002c0.505 0 0.883-0.094 1.131-0.281 0.253-0.188 0.38-0.451 0.38-0.791 0-0.706-0.519-1.060-1.557-1.060h-1.956zM129.296 6.344h1.564c1.133 0 1.7-0.331 1.7-0.994s-0.537-1.005-1.609-1.027h-1.655v2.021z"></path>
<path d="M138.465 9.562c0.432 0 0.809-0.131 1.132-0.392s0.502-0.589 0.537-0.981h1.145c-0.022 0.406-0.161 0.791-0.419 1.158s-0.601 0.658-1.033 0.876c-0.428 0.218-0.881 0.327-1.361 0.327-0.963 0-1.731-0.321-2.302-0.961-0.567-0.645-0.851-1.526-0.851-2.642v-0.203c0-0.689 0.126-1.302 0.38-1.838s0.615-0.953 1.086-1.249c0.476-0.296 1.036-0.445 1.681-0.445 0.793 0 1.452 0.238 1.975 0.713 0.528 0.475 0.809 1.092 0.844 1.851h-1.145c-0.035-0.458-0.21-0.833-0.523-1.125-0.31-0.296-0.694-0.445-1.151-0.445-0.615 0-1.092 0.222-1.433 0.667-0.336 0.44-0.504 1.079-0.504 1.916v0.229c0 0.815 0.168 1.443 0.504 1.884s0.816 0.661 1.439 0.661z"></path>
<path d="M143.954 10.419h-1.21v-7.077h1.21v7.077zM142.646 1.464c0-0.196 0.059-0.362 0.176-0.497 0.122-0.135 0.301-0.203 0.537-0.203s0.414 0.068 0.536 0.203 0.183 0.301 0.183 0.497c0 0.196-0.061 0.36-0.183 0.491s-0.301 0.196-0.536 0.196c-0.236 0-0.415-0.065-0.537-0.196-0.118-0.131-0.176-0.294-0.176-0.491z"></path>
<path d="M155.001 10.419h-1.21v-3.022h-3.251v3.022h-1.217v-7.077h1.217v3.068h3.251v-3.068h1.21v7.077z"></path>
<path d="M156.63 6.815c0-0.693 0.135-1.317 0.406-1.871 0.275-0.554 0.654-0.981 1.138-1.282 0.488-0.301 1.044-0.451 1.668-0.451 0.964 0 1.742 0.334 2.335 1.001 0.598 0.667 0.896 1.554 0.896 2.662v0.085c0 0.689-0.133 1.308-0.399 1.858-0.262 0.545-0.639 0.97-1.132 1.275-0.488 0.305-1.051 0.458-1.687 0.458-0.959 0-1.738-0.334-2.335-1.001-0.593-0.667-0.889-1.55-0.889-2.649v-0.085zM157.846 6.959c0 0.785 0.182 1.415 0.543 1.89 0.366 0.475 0.854 0.713 1.465 0.713 0.615 0 1.103-0.24 1.465-0.719 0.362-0.484 0.543-1.16 0.543-2.028 0-0.776-0.185-1.404-0.556-1.884-0.366-0.484-0.855-0.726-1.465-0.726-0.598 0-1.079 0.238-1.445 0.713s-0.55 1.156-0.55 2.041z"></path>
<path d="M164.7 10.419v-7.077h2.76c0.942 0 1.664 0.166 2.166 0.497 0.505 0.327 0.758 0.809 0.758 1.445 0 0.327-0.098 0.624-0.294 0.89-0.196 0.262-0.487 0.462-0.87 0.602 0.427 0.1 0.769 0.296 1.027 0.589 0.261 0.292 0.392 0.641 0.392 1.047 0 0.65-0.24 1.147-0.72 1.491-0.476 0.344-1.149 0.517-2.021 0.517h-3.198zM165.91 7.312v2.132h2.002c0.506 0 0.883-0.094 1.131-0.281 0.253-0.188 0.38-0.451 0.38-0.791 0-0.706-0.519-1.060-1.557-1.060h-1.956zM165.91 6.344h1.564c1.133 0 1.7-0.331 1.7-0.994s-0.537-1.005-1.609-1.027h-1.655v2.021z"></path>
<path d="M173.557 10.419h-1.21v-7.077h1.21v7.077zM172.249 1.464c0-0.196 0.059-0.362 0.176-0.497 0.122-0.135 0.301-0.203 0.537-0.203s0.415 0.068 0.537 0.203c0.122 0.135 0.183 0.301 0.183 0.497s-0.061 0.36-0.183 0.491c-0.122 0.131-0.301 0.196-0.537 0.196s-0.415-0.065-0.537-0.196c-0.118-0.131-0.176-0.294-0.176-0.491z"></path>
<path d="M54.012 28.911c0.432 0 0.809-0.131 1.132-0.392s0.501-0.589 0.536-0.981h1.145c-0.022 0.406-0.161 0.791-0.419 1.158s-0.602 0.658-1.033 0.876c-0.427 0.218-0.881 0.327-1.36 0.327-0.964 0-1.731-0.321-2.302-0.962-0.567-0.645-0.85-1.526-0.85-2.642v-0.203c0-0.689 0.126-1.302 0.379-1.838s0.615-0.953 1.086-1.249c0.475-0.296 1.036-0.445 1.681-0.445 0.794 0 1.452 0.238 1.975 0.713 0.528 0.475 0.809 1.092 0.844 1.851h-1.145c-0.035-0.458-0.209-0.833-0.523-1.125-0.31-0.296-0.693-0.445-1.151-0.445-0.615 0-1.092 0.222-1.432 0.667-0.336 0.44-0.504 1.079-0.504 1.916v0.229c0 0.815 0.168 1.443 0.504 1.884s0.815 0.661 1.439 0.661z"></path>
<path d="M63.974 29.767h-1.21v-6.076h-3.257v6.076h-1.217v-7.077h5.684v7.077z"></path>
<path d="M65.596 26.163c0-0.693 0.135-1.317 0.406-1.871 0.275-0.554 0.654-0.981 1.138-1.282 0.488-0.301 1.044-0.451 1.668-0.451 0.964 0 1.742 0.334 2.335 1.001 0.597 0.667 0.896 1.554 0.896 2.662v0.085c0 0.689-0.133 1.308-0.399 1.858-0.262 0.545-0.639 0.97-1.132 1.275-0.488 0.305-1.051 0.458-1.688 0.458-0.959 0-1.738-0.334-2.335-1.001-0.593-0.667-0.89-1.55-0.89-2.649v-0.085zM66.813 26.307c0 0.785 0.181 1.415 0.543 1.89 0.366 0.475 0.855 0.713 1.465 0.713 0.615 0 1.103-0.24 1.465-0.719 0.362-0.484 0.543-1.16 0.543-2.028 0-0.776-0.185-1.404-0.556-1.884-0.366-0.484-0.855-0.726-1.465-0.726-0.597 0-1.079 0.238-1.445 0.713s-0.549 1.155-0.549 2.041z"></path>
<path d="M73.667 29.767v-7.077h2.76c0.942 0 1.664 0.166 2.165 0.497 0.506 0.327 0.759 0.809 0.759 1.445 0 0.327-0.098 0.624-0.295 0.89-0.196 0.262-0.486 0.462-0.87 0.602 0.428 0.1 0.77 0.296 1.027 0.589 0.262 0.292 0.393 0.641 0.393 1.047 0 0.65-0.24 1.147-0.72 1.491-0.476 0.344-1.149 0.517-2.021 0.517h-3.198zM74.877 26.661v2.132h2.002c0.505 0 0.883-0.094 1.131-0.281 0.253-0.188 0.38-0.451 0.38-0.791 0-0.706-0.519-1.060-1.557-1.060h-1.956zM74.877 25.693h1.564c1.133 0 1.7-0.331 1.7-0.994s-0.537-1.005-1.609-1.027h-1.655v2.021z"></path>
<path d="M82.524 29.767h-1.21v-7.077h1.21v7.077zM81.215 20.813c0-0.196 0.059-0.362 0.176-0.497 0.122-0.135 0.301-0.203 0.537-0.203s0.414 0.068 0.537 0.203c0.122 0.135 0.183 0.301 0.183 0.497s-0.061 0.36-0.183 0.491c-0.123 0.131-0.301 0.196-0.537 0.196s-0.415-0.065-0.537-0.196c-0.118-0.131-0.176-0.294-0.176-0.491z"></path>
<path d="M85.715 22.69v6.089h2.59v-6.089h1.21v6.089h2.584v-6.089h1.217v6.089h0.994l-0.118 3.087h-1.086v-2.1h-8.607v-7.077h1.217z"></path>
<path d="M98.561 29.898c-0.959 0-1.739-0.314-2.341-0.942-0.602-0.632-0.903-1.476-0.903-2.531v-0.222c0-0.702 0.133-1.328 0.399-1.877 0.27-0.554 0.645-0.985 1.125-1.295 0.484-0.314 1.007-0.471 1.57-0.471 0.921 0 1.636 0.303 2.145 0.909s0.765 1.474 0.765 2.603v0.504h-4.794c0.017 0.698 0.22 1.262 0.608 1.694 0.393 0.427 0.89 0.641 1.491 0.641 0.428 0 0.79-0.087 1.086-0.262s0.556-0.406 0.778-0.693l0.739 0.576c-0.593 0.911-1.482 1.367-2.669 1.367zM98.41 23.554c-0.488 0-0.898 0.179-1.229 0.536-0.331 0.353-0.537 0.85-0.615 1.491h3.545v-0.092c-0.034-0.615-0.2-1.090-0.497-1.426-0.296-0.34-0.697-0.51-1.203-0.51z"></path>
<path d="M108.51 29.767h-1.21v-3.022h-3.251v3.022h-1.216v-7.077h1.216v3.068h3.251v-3.068h1.21v7.077z"></path>
<path d="M116.24 29.767h-1.21v-3.022h-3.251v3.022h-1.217v-7.077h1.217v3.068h3.251v-3.068h1.21v7.077z"></path>
<path d="M123.599 22.69v7.077h-1.217v-2.754h-1.825l-1.668 2.754h-1.308l1.779-2.937c-0.454-0.166-0.803-0.421-1.047-0.765-0.24-0.349-0.359-0.754-0.359-1.217 0-0.645 0.242-1.164 0.726-1.557 0.484-0.397 1.131-0.597 1.942-0.602h2.976zM119.171 24.862c0 0.344 0.118 0.624 0.353 0.837 0.236 0.209 0.548 0.316 0.935 0.321h1.923v-2.348h-1.74c-0.449 0-0.807 0.111-1.072 0.334-0.266 0.218-0.399 0.504-0.399 0.857z"></path>
</symbol>
</defs>
</svg>
